<svg id="wave" style="transform:rotate(180deg); transition: 0.3s" viewBox="0 0 1440 250" version="1.1" xmlns="http://www.w3.org/2000/svg"><defs><linearGradient id="sw-gradient-0" x1="0" x2="0" y1="1" y2="0"><stop stop-color="rgba(244, 235, 229, 1)" offset="0%"></stop><stop stop-color="rgba(244, 235, 229, 1)" offset="100%"></stop></linearGradient></defs><path style="transform:translate(0, 0px); opacity:1" fill="url(#sw-gradient-0)" d="M0,125L48,141.7C96,158,192,192,288,179.2C384,167,480,108,576,95.8C672,83,768,117,864,112.5C960,108,1056,67,1152,70.8C1248,75,1344,125,1440,150C1536,175,1632,175,1728,154.2C1824,133,1920,92,2016,70.8C2112,50,2208,50,2304,66.7C2400,83,2496,117,2592,108.3C2688,100,2784,50,2880,50C2976,50,3072,100,3168,129.2C3264,158,3360,167,3456,150C3552,133,3648,92,3744,70.8C3840,50,3936,50,4032,41.7C4128,33,4224,17,4320,25C4416,33,4512,67,4608,75C4704,83,4800,67,4896,83.3C4992,100,5088,150,5184,154.2C5280,158,5376,117,5472,108.3C5568,100,5664,125,5760,150C5856,175,5952,200,6048,187.5C6144,175,6240,125,6336,116.7C6432,108,6528,142,6624,150C6720,158,6816,142,6864,133.3L6912,125L6912,250L6864,250C6816,250,6720,250,6624,250C6528,250,6432,250,6336,250C6240,250,6144,250,6048,250C5952,250,5856,250,5760,250C5664,250,5568,250,5472,250C5376,250,5280,250,5184,250C5088,250,4992,250,4896,250C4800,250,4704,250,4608,250C4512,250,4416,250,4320,250C4224,250,4128,250,4032,250C3936,250,3840,250,3744,250C3648,250,3552,250,3456,250C3360,250,3264,250,3168,250C3072,250,2976,250,2880,250C2784,250,2688,250,2592,250C2496,250,2400,250,2304,250C2208,250,2112,250,2016,250C1920,250,1824,250,1728,250C1632,250,1536,250,1440,250C1344,250,1248,250,1152,250C1056,250,960,250,864,250C768,250,672,250,576,250C480,250,384,250,288,250C192,250,96,250,48,250L0,250Z"></path></svg>