<svg id="wave" style="transform:rotate(0deg); transition: 0.3s" viewBox="0 0 1440 250" version="1.1" xmlns="http://www.w3.org/2000/svg"><defs><linearGradient id="sw-gradient-0" x1="0" x2="0" y1="1" y2="0"><stop stop-color="rgba(236, 219, 207, 1)" offset="0%"></stop><stop stop-color="rgba(236, 219, 207, 1)" offset="100%"></stop></linearGradient></defs><path style="transform:translate(0, 0px); opacity:1" fill="url(#sw-gradient-0)" d="M0,150L48,145.8C96,142,192,133,288,112.5C384,92,480,58,576,75C672,92,768,158,864,158.3C960,158,1056,92,1152,83.3C1248,75,1344,125,1440,137.5C1536,150,1632,125,1728,100C1824,75,1920,50,2016,70.8C2112,92,2208,158,2304,166.7C2400,175,2496,125,2592,104.2C2688,83,2784,92,2880,104.2C2976,117,3072,133,3168,141.7C3264,150,3360,150,3456,162.5C3552,175,3648,200,3744,183.3C3840,167,3936,108,4032,91.7C4128,75,4224,100,4320,120.8C4416,142,4512,158,4608,162.5C4704,167,4800,158,4896,154.2C4992,150,5088,150,5184,158.3C5280,167,5376,183,5472,187.5C5568,192,5664,183,5760,150C5856,117,5952,58,6048,62.5C6144,67,6240,133,6336,150C6432,167,6528,133,6624,133.3C6720,133,6816,167,6864,183.3L6912,200L6912,250L6864,250C6816,250,6720,250,6624,250C6528,250,6432,250,6336,250C6240,250,6144,250,6048,250C5952,250,5856,250,5760,250C5664,250,5568,250,5472,250C5376,250,5280,250,5184,250C5088,250,4992,250,4896,250C4800,250,4704,250,4608,250C4512,250,4416,250,4320,250C4224,250,4128,250,4032,250C3936,250,3840,250,3744,250C3648,250,3552,250,3456,250C3360,250,3264,250,3168,250C3072,250,2976,250,2880,250C2784,250,2688,250,2592,250C2496,250,2400,250,2304,250C2208,250,2112,250,2016,250C1920,250,1824,250,1728,250C1632,250,1536,250,1440,250C1344,250,1248,250,1152,250C1056,250,960,250,864,250C768,250,672,250,576,250C480,250,384,250,288,250C192,250,96,250,48,250L0,250Z"></path></svg>