<svg width="280.01" height="60.751" viewBox="0 0 280 60" xmlns="http://www.w3.org/2000/svg"><g id="svgGroup" stroke-linecap="round" fill-rule="evenodd" font-size="9pt" stroke="#f4ebe5" stroke-width="0.25mm" fill="black" style="stroke:#f4ebe5;stroke-width:0.25mm;fill:#f4ebe5"><path d="M 128.73 50.051 L 95.9 50.051 L 95.9 0.701 L 128.73 0.701 L 128.73 7.841 L 104.51 7.841 L 104.51 21.421 L 127.19 21.421 L 127.19 28.561 L 104.51 28.561 L 104.51 42.911 L 128.73 42.911 L 128.73 50.051 Z M 146.65 50.051 L 137.69 50.051 L 137.69 0.701 L 159.11 0.701 A 27.249 27.249 0 0 1 163.986 1.109 Q 168.66 1.96 171.64 4.586 A 12.683 12.683 0 0 1 175.739 11.972 A 18.758 18.758 0 0 1 176.05 15.471 Q 176.05 21.001 173.18 24.606 Q 170.31 28.211 164.92 29.471 A 8.79 8.79 0 0 1 168.671 31.864 Q 169.844 33.092 170.8 34.861 L 179.06 50.051 L 169.19 50.051 L 160.65 34.301 Q 159.39 31.991 157.675 31.151 A 7.513 7.513 0 0 0 155.994 30.576 Q 155.19 30.398 154.25 30.339 A 15.264 15.264 0 0 0 153.3 30.311 L 146.65 30.311 L 146.65 50.051 Z M 65.52 50.051 L 56.56 50.051 L 56.56 0.701 L 88.83 0.701 L 88.83 7.841 L 65.52 7.841 L 65.52 21.771 L 87.36 21.771 L 87.36 28.911 L 65.52 28.911 L 65.52 50.051 Z M 205.17 50.051 L 196.21 50.051 L 196.21 8.191 L 179.27 8.191 L 179.27 0.701 L 222.11 0.701 L 222.11 8.191 L 205.17 8.191 L 205.17 50.051 Z M 226.1 50.051 L 217 50.051 L 239.33 0.701 L 246.68 0.701 L 269.01 50.051 L 259.91 50.051 L 255.01 38.641 L 230.93 38.641 L 226.1 50.051 Z M 23.73 50.751 Q 16.59 50.751 11.235 47.601 Q 5.88 44.451 2.94 38.746 A 25.958 25.958 0 0 1 0.449 31.052 A 34.875 34.875 0 0 1 0 25.341 Q 0 17.571 2.94 11.901 Q 5.88 6.231 11.2 3.116 A 22.501 22.501 0 0 1 19.202 0.336 A 29.526 29.526 0 0 1 23.73 0.001 Q 30.94 0.001 36.26 3.116 Q 41.58 6.231 44.52 11.901 A 25.59 25.59 0 0 1 46.975 19.349 A 34.582 34.582 0 0 1 47.46 25.271 A 34.569 34.569 0 0 1 46.857 31.888 A 25.559 25.559 0 0 1 44.52 38.746 Q 41.58 44.451 36.26 47.601 A 22.371 22.371 0 0 1 28.155 50.427 A 29.285 29.285 0 0 1 23.73 50.751 Z M 23.73 43.051 Q 30.52 43.051 34.3 38.361 A 15.752 15.752 0 0 0 37.075 32.963 Q 37.766 30.675 37.982 27.93 A 33.045 33.045 0 0 0 38.08 25.341 A 30.31 30.31 0 0 0 37.687 20.291 Q 37.226 17.566 36.224 15.387 A 14.366 14.366 0 0 0 34.335 12.321 A 12.196 12.196 0 0 0 26.291 7.877 A 17.922 17.922 0 0 0 23.73 7.701 Q 16.94 7.701 13.16 12.321 Q 10.061 16.109 9.503 22.44 A 33.071 33.071 0 0 0 9.38 25.341 Q 9.38 33.671 13.16 38.361 A 12.318 12.318 0 0 0 21.682 42.936 A 17.781 17.781 0 0 0 23.73 43.051 Z M 146.65 7.771 L 146.65 23.661 L 157.57 23.661 A 17.677 17.677 0 0 0 161.147 23.331 Q 166.568 22.206 167.267 17.236 A 11.175 11.175 0 0 0 167.37 15.681 Q 167.37 7.771 157.57 7.771 L 146.65 7.771 Z M 243.04 10.431 L 242.9 10.431 L 234.01 31.501 L 251.93 31.501 L 243.04 10.431 Z" vector-effect="non-scaling-stroke"/></g></svg>